<svg width="1440" height="213" viewBox="0 0 1440 213" fill="none" xmlns="http://www.w3.org/2000/svg">
<path d="M25.7476 3.85034V111.66H68.8347V142.096H-10.1889V3.85034H25.7476Z" fill="#133563" fill-opacity="0.02"/>
<path d="M166.051 34.2863H123.331V57.3883H163.668V87.8243H123.331V111.66H166.051V142.096H87.3944V3.85034H166.051V34.2863Z" fill="#133563" fill-opacity="0.02"/>
<path d="M227.897 3.85034V142.096H191.961V3.85034H227.897Z" fill="#133563" fill-opacity="0.02"/>
<path d="M292.714 111.66H300.965C307.199 111.66 312.76 110.682 317.65 108.726C322.539 106.77 326.634 104.081 329.934 100.659C333.356 97.2362 335.923 93.2025 337.635 88.5577C339.468 83.7906 340.385 78.5957 340.385 72.973C340.385 67.4725 339.468 62.3387 337.635 57.5716C335.801 52.8046 333.173 48.7098 329.751 45.2873C326.45 41.8647 322.355 39.1756 317.466 37.2199C312.577 35.2642 307.076 34.2863 300.965 34.2863H292.714V111.66ZM256.778 3.85034H309.949C319.361 3.85034 328.161 5.74494 336.351 9.53415C344.663 13.3234 351.875 18.396 357.986 24.7521C364.22 30.986 369.109 38.32 372.654 46.754C376.199 55.0659 377.971 63.8055 377.971 72.973C377.971 82.0182 376.199 90.7579 372.654 99.1919C369.232 107.504 364.404 114.838 358.17 121.194C352.058 127.55 344.846 132.623 336.534 136.412C328.345 140.201 319.483 142.096 309.949 142.096H256.778V3.85034Z" fill="#133563" fill-opacity="0.02"/>
<path d="M436.851 3.85034V142.096H400.914V3.85034H436.851Z" fill="#133563" fill-opacity="0.02"/>
<path d="M465.731 142.096V3.85034H501.668L568.04 88.3743V3.85034H603.793V142.096H568.04L501.668 57.5716V142.096H465.731Z" fill="#133563" fill-opacity="0.02"/>
<path d="M702.583 64.7223H773.905C773.905 72.0562 773.6 78.7179 772.989 84.7073C772.377 90.6967 771.155 96.2583 769.322 101.392C766.755 108.604 763.271 115.021 758.871 120.644C754.47 126.144 749.275 130.789 743.286 134.578C737.419 138.245 730.941 141.057 723.851 143.012C716.762 144.968 709.305 145.946 701.482 145.946C690.726 145.946 680.886 144.174 671.963 140.629C663.162 137.084 655.584 132.134 649.228 125.778C642.872 119.299 637.921 111.599 634.377 102.676C630.832 93.6303 629.06 83.6683 629.06 72.7896C629.06 62.0331 630.771 52.1934 634.193 43.2704C637.738 34.2252 642.688 26.5245 649.045 20.1684C655.523 13.8123 663.285 8.86188 672.33 5.31712C681.375 1.77237 691.459 0 702.583 0C717.006 0 729.657 3.11694 740.536 9.35081C751.415 15.5847 760.032 25.2411 766.388 38.32L732.285 52.4379C729.107 44.8594 724.951 39.4201 719.817 36.1198C714.806 32.8195 709.061 31.1694 702.583 31.1694C697.204 31.1694 692.315 32.2083 687.915 34.2863C683.514 36.242 679.725 39.1145 676.547 42.9037C673.491 46.5707 671.047 51.0322 669.213 56.2882C667.502 61.5442 666.646 67.4114 666.646 73.8897C666.646 79.7569 667.38 85.1963 668.846 90.2078C670.435 95.2193 672.758 99.5586 675.814 103.226C678.869 106.893 682.659 109.765 687.181 111.843C691.704 113.799 696.96 114.777 702.949 114.777C706.494 114.777 709.917 114.41 713.217 113.676C716.517 112.821 719.451 111.537 722.018 109.826C724.707 107.993 726.907 105.67 728.618 102.859C730.329 100.048 731.491 96.625 732.102 92.5913H702.583V64.7223Z" fill="#133563" fill-opacity="0.02"/>
<path d="M863.908 64.7223H935.231C935.231 72.0562 934.926 78.7179 934.314 84.7073C933.703 90.6967 932.481 96.2583 930.647 101.392C928.081 108.604 924.597 115.021 920.197 120.644C915.796 126.144 910.601 130.789 904.612 134.578C898.745 138.245 892.266 141.057 885.177 143.012C878.087 144.968 870.631 145.946 862.808 145.946C852.052 145.946 842.212 144.174 833.289 140.629C824.488 137.084 816.91 132.134 810.554 125.778C804.198 119.299 799.247 111.599 795.703 102.676C792.158 93.6303 790.385 83.6683 790.385 72.7896C790.385 62.0331 792.097 52.1934 795.519 43.2704C799.064 34.2252 804.014 26.5245 810.37 20.1684C816.849 13.8123 824.61 8.86188 833.656 5.31712C842.701 1.77237 852.785 0 863.908 0C878.332 0 890.983 3.11694 901.862 9.35081C912.74 15.5847 921.358 25.2411 927.714 38.32L893.611 52.4379C890.433 44.8594 886.277 39.4201 881.143 36.1198C876.132 32.8195 870.387 31.1694 863.908 31.1694C858.53 31.1694 853.641 32.2083 849.24 34.2863C844.84 36.242 841.051 39.1145 837.873 42.9037C834.817 46.5707 832.372 51.0322 830.539 56.2882C828.828 61.5442 827.972 67.4114 827.972 73.8897C827.972 79.7569 828.705 85.1963 830.172 90.2078C831.761 95.2193 834.083 99.5586 837.139 103.226C840.195 106.893 843.984 109.765 848.507 111.843C853.03 113.799 858.286 114.777 864.275 114.777C867.82 114.777 871.242 114.41 874.543 113.676C877.843 112.821 880.776 111.537 883.343 109.826C886.032 107.993 888.233 105.67 889.944 102.859C891.655 100.048 892.816 96.625 893.427 92.5913H863.908V64.7223Z" fill="#133563" fill-opacity="0.02"/>
<path d="M1036.6 34.2863H993.881V57.3883H1034.22V87.8243H993.881V111.66H1036.6V142.096H957.945V3.85034H1036.6V34.2863Z" fill="#133563" fill-opacity="0.02"/>
<path d="M1087.08 3.85034L1120.45 88.0076L1154 3.85034H1193.06L1134.75 142.096H1106.15L1048.03 3.85034H1087.08Z" fill="#133563" fill-opacity="0.02"/>
<path d="M1286.2 34.2863H1243.48V57.3883H1283.82V87.8243H1243.48V111.66H1286.2V142.096H1207.54V3.85034H1286.2V34.2863Z" fill="#133563" fill-opacity="0.02"/>
<path d="M1312.11 142.096V3.85034H1348.05L1414.42 88.3743V3.85034H1450.17V142.096H1414.42L1348.05 57.5716V142.096H1312.11Z" fill="#133563" fill-opacity="0.02"/>
<path d="M-338 325.445L-314.531 187.2H-278.962L-251.276 260.906L-223.773 187.2H-188.204L-164.735 325.445H-200.488L-212.406 245.871L-245.042 325.445H-259.343L-290.329 245.871L-302.247 325.445H-338Z" fill="#133563" fill-opacity="0.02"/>
<path d="M-63.3143 217.635H-106.035V240.737H-65.6978V271.173H-106.035V295.009H-63.3143V325.445H-141.971V187.2H-63.3143V217.635Z" fill="#133563" fill-opacity="0.02"/>
<path d="M15.0331 217.635V325.445H-20.9033V217.635H-50.4225V187.2H44.5523V217.635H15.0331Z" fill="#133563" fill-opacity="0.02"/>
<path d="M201.503 217.635H158.783V240.737H199.12V271.173H158.783V295.009H201.503V325.445H122.847V187.2H201.503V217.635Z" fill="#133563" fill-opacity="0.02"/>
<path d="M227.413 325.445V187.2H263.349L329.722 271.723V187.2H365.475V325.445H329.722L263.349 240.921V325.445H227.413Z" fill="#133563" fill-opacity="0.02"/>
<path d="M505.366 295.009H563.304V325.445H445.044L510.5 217.635H456.045V187.2H570.455L505.366 295.009Z" fill="#133563" fill-opacity="0.02"/>
<path d="M619.018 256.322C619.018 261.823 620.057 266.895 622.135 271.54C624.213 276.185 627.024 280.219 630.569 283.641C634.114 287.064 638.209 289.753 642.854 291.709C647.621 293.542 652.632 294.459 657.888 294.459C663.144 294.459 668.095 293.542 672.74 291.709C677.507 289.753 681.663 287.064 685.207 283.641C688.874 280.219 691.747 276.185 693.825 271.54C695.903 266.895 696.942 261.823 696.942 256.322C696.942 250.822 695.903 245.749 693.825 241.104C691.747 236.459 688.874 232.426 685.207 229.003C681.663 225.581 677.507 222.953 672.74 221.119C668.095 219.163 663.144 218.186 657.888 218.186C652.632 218.186 647.621 219.163 642.854 221.119C638.209 222.953 634.114 225.581 630.569 229.003C627.024 232.426 624.213 236.459 622.135 241.104C620.057 245.749 619.018 250.822 619.018 256.322ZM581.432 256.322C581.432 246.055 583.326 236.52 587.116 227.72C590.905 218.797 596.161 211.035 602.884 204.434C609.606 197.834 617.613 192.7 626.902 189.033C636.314 185.244 646.643 183.349 657.888 183.349C669.011 183.349 679.279 185.244 688.691 189.033C698.103 192.7 706.17 197.834 712.893 204.434C719.738 211.035 725.055 218.797 728.844 227.72C732.634 236.52 734.528 246.055 734.528 256.322C734.528 266.59 732.634 276.185 728.844 285.108C725.055 293.909 719.738 301.609 712.893 308.21C706.17 314.811 698.103 320.005 688.691 323.795C679.279 327.462 669.011 329.295 657.888 329.295C646.643 329.295 636.314 327.462 626.902 323.795C617.613 320.005 609.606 314.811 602.884 308.21C596.161 301.609 590.905 293.909 587.116 285.108C583.326 276.185 581.432 266.59 581.432 256.322Z" fill="#133563" fill-opacity="0.02"/>
<path d="M757.228 325.445V187.2H793.164L859.537 271.723V187.2H895.29V325.445H859.537L793.164 240.921V325.445H757.228Z" fill="#133563" fill-opacity="0.02"/>
<path d="M960.22 295.009H968.47C974.704 295.009 980.266 294.031 985.155 292.075C990.044 290.12 994.139 287.43 997.439 284.008C1000.86 280.585 1003.43 276.552 1005.14 271.907C1006.97 267.14 1007.89 261.945 1007.89 256.322C1007.89 250.822 1006.97 245.688 1005.14 240.921C1003.31 236.154 1000.68 232.059 997.256 228.636C993.956 225.214 989.861 222.525 984.972 220.569C980.082 218.613 974.582 217.635 968.47 217.635H960.22V295.009ZM924.283 187.2H977.454C986.866 187.2 995.667 189.094 1003.86 192.883C1012.17 196.673 1019.38 201.745 1025.49 208.101C1031.73 214.335 1036.62 221.669 1040.16 230.103C1043.7 238.415 1045.48 247.155 1045.48 256.322C1045.48 265.367 1043.7 274.107 1040.16 282.541C1036.74 290.853 1031.91 298.187 1025.68 304.543C1019.56 310.899 1012.35 315.972 1004.04 319.761C995.851 323.55 986.989 325.445 977.454 325.445H924.283V187.2Z" fill="#133563" fill-opacity="0.02"/>
<path d="M1147.08 217.635H1104.36V240.737H1144.69V271.173H1104.36V295.009H1147.08V325.445H1068.42V187.2H1147.08V217.635Z" fill="#133563" fill-opacity="0.02"/>
<path d="M1208.92 248.988H1215.71C1222.8 248.988 1228.24 247.521 1232.02 244.588C1235.81 241.654 1237.71 237.437 1237.71 231.937C1237.71 226.436 1235.81 222.219 1232.02 219.286C1228.24 216.352 1222.8 214.885 1215.71 214.885H1208.92V248.988ZM1287.95 325.445H1243.21L1208.92 272.274V325.445H1172.99V187.2H1228.91C1236.61 187.2 1243.33 188.361 1249.08 190.683C1254.82 192.883 1259.53 195.939 1263.19 199.851C1266.98 203.762 1269.79 208.285 1271.63 213.418C1273.58 218.552 1274.56 224.053 1274.56 229.92C1274.56 240.432 1271.99 248.988 1266.86 255.589C1261.85 262.067 1254.39 266.467 1244.49 268.79L1287.95 325.445Z" fill="#133563" fill-opacity="0.02"/>
<path d="M1443.94 217.635H1401.22V240.737H1441.56V271.173H1401.22V295.009H1443.94V325.445H1365.29V187.2H1443.94V217.635Z" fill="#133563" fill-opacity="0.02"/>
<path d="M1537.14 248.071H1608.47C1608.47 255.405 1608.16 262.067 1607.55 268.056C1606.94 274.046 1605.72 279.608 1603.88 284.741C1601.32 291.953 1597.83 298.37 1593.43 303.993C1589.03 309.493 1583.84 314.138 1577.85 317.927C1571.98 321.594 1565.5 324.406 1558.41 326.362C1551.32 328.317 1543.87 329.295 1536.04 329.295C1525.29 329.295 1515.45 327.523 1506.52 323.978C1497.72 320.433 1490.15 315.483 1483.79 309.127C1477.43 302.648 1472.48 294.948 1468.94 286.025C1465.39 276.979 1463.62 267.018 1463.62 256.139C1463.62 245.382 1465.33 235.543 1468.75 226.62C1472.3 217.574 1477.25 209.874 1483.61 203.518C1490.08 197.161 1497.85 192.211 1506.89 188.666C1515.94 185.122 1526.02 183.349 1537.14 183.349C1551.57 183.349 1564.22 186.466 1575.1 192.7C1585.98 198.934 1594.59 208.59 1600.95 221.669L1566.85 235.787C1563.67 228.209 1559.51 222.769 1554.38 219.469C1549.37 216.169 1543.62 214.519 1537.14 214.519C1531.77 214.519 1526.88 215.558 1522.48 217.635C1518.08 219.591 1514.29 222.464 1511.11 226.253C1508.05 229.92 1505.61 234.381 1503.77 239.637C1502.06 244.893 1501.21 250.761 1501.21 257.239C1501.21 263.106 1501.94 268.545 1503.41 273.557C1505 278.569 1507.32 282.908 1510.37 286.575C1513.43 290.242 1517.22 293.114 1521.74 295.192C1526.26 297.148 1531.52 298.126 1537.51 298.126C1541.06 298.126 1544.48 297.759 1547.78 297.026C1551.08 296.17 1554.01 294.887 1556.58 293.175C1559.27 291.342 1561.47 289.019 1563.18 286.208C1564.89 283.397 1566.05 279.974 1566.66 275.941H1537.14V248.071Z" fill="#133563" fill-opacity="0.02"/>
<path d="M1662.53 256.322C1662.53 261.823 1663.57 266.895 1665.65 271.54C1667.73 276.185 1670.54 280.219 1674.08 283.641C1677.63 287.064 1681.72 289.753 1686.37 291.709C1691.14 293.542 1696.15 294.459 1701.4 294.459C1706.66 294.459 1711.61 293.542 1716.25 291.709C1721.02 289.753 1725.18 287.064 1728.72 283.641C1732.39 280.219 1735.26 276.185 1737.34 271.54C1739.42 266.895 1740.46 261.823 1740.46 256.322C1740.46 250.822 1739.42 245.749 1737.34 241.104C1735.26 236.459 1732.39 232.426 1728.72 229.003C1725.18 225.581 1721.02 222.953 1716.25 221.119C1711.61 219.163 1706.66 218.186 1701.4 218.186C1696.15 218.186 1691.14 219.163 1686.37 221.119C1681.72 222.953 1677.63 225.581 1674.08 229.003C1670.54 232.426 1667.73 236.459 1665.65 241.104C1663.57 245.749 1662.53 250.822 1662.53 256.322ZM1624.95 256.322C1624.95 246.055 1626.84 236.52 1630.63 227.72C1634.42 218.797 1639.68 211.035 1646.4 204.434C1653.12 197.834 1661.13 192.7 1670.42 189.033C1679.83 185.244 1690.16 183.349 1701.4 183.349C1712.53 183.349 1722.79 185.244 1732.21 189.033C1741.62 192.7 1749.68 197.834 1756.41 204.434C1763.25 211.035 1768.57 218.797 1772.36 227.72C1776.15 236.52 1778.04 246.055 1778.04 256.322C1778.04 266.59 1776.15 276.185 1772.36 285.108C1768.57 293.909 1763.25 301.609 1756.41 308.21C1749.68 314.811 1741.62 320.005 1732.21 323.795C1722.79 327.462 1712.53 329.295 1701.4 329.295C1690.16 329.295 1679.83 327.462 1670.42 323.795C1661.13 320.005 1653.12 314.811 1646.4 308.21C1639.68 301.609 1634.42 293.909 1630.63 285.108C1626.84 276.185 1624.95 266.59 1624.95 256.322Z" fill="#133563" fill-opacity="0.02"/>
</svg>
