<svg width="312" height="225" viewBox="0 0 312 225" fill="none" xmlns="http://www.w3.org/2000/svg">
<path d="M139.788 224.557C152.862 224.655 166.041 224.821 179.111 224.629C199.499 224.332 219.85 223.552 240.249 223.177C233.295 222.907 225.998 222.985 218.997 222.943C204.282 222.875 189.573 222.839 174.86 222.835L116.537 222.918C101.677 222.902 86.5683 222.647 71.7646 223.047C94.3962 223.766 117.073 224.269 139.794 224.557H139.788Z" fill="#8AD360"/>
<path d="M120.744 215.598C145.576 214.895 200.701 216.659 228.001 217.133C247.858 217.481 268.74 217.345 288.3 218.116C258.345 218.641 227.251 218.314 197.146 218.314C139.601 218.267 81.0455 218.828 23.6972 217.747L120.744 215.598Z" fill="#8AD360"/>
<path d="M215.41 84.0049L215.238 84.244L215.55 84.3798C215.504 84.2549 215.457 84.1299 215.41 84.0049Z" fill="#8AD360"/>
<path d="M163.648 103.675C169.056 102.984 181.054 104.774 186.997 105.267C191.317 105.627 195.867 105.502 200.125 106.277C193.603 106.786 186.836 106.449 180.283 106.428C167.754 106.35 155.008 106.886 142.521 105.772L163.648 103.675Z" fill="#8AD360"/>
<path d="M254.615 94.5351C253.522 93.2132 252.444 91.6943 251.206 90.519C249.405 87.6313 246.771 84.8842 244.439 82.4027L242.216 79.7134C240.348 81.9293 236.038 85.8877 235.044 88.3235L235.44 89.0457V89.0566L236.277 89.1503C236.48 88.9364 236.705 88.7501 236.929 88.5566C236.918 89.363 236.237 90.0395 235.763 90.6644C236.324 92.5835 236.679 94.5399 237.054 96.5011C236.33 95.0554 235.83 93.5305 234.587 92.4429L234.779 92.7446C233.81 92.2146 233.227 90.8988 232.676 89.9723L233.462 93.3743C233.004 92.7241 232.031 90.6224 231.463 90.2739L231.13 91.1379L230.86 91.174C229.35 89.1239 228.257 83.6309 227.211 80.9151C226.29 78.5165 225.051 76.2584 223.848 73.9956C226.373 76.4147 228.278 79.4213 230.516 82.0951C232.035 83.9169 233.785 85.4298 235.538 87.0125C234.29 84.7232 232.426 82.6731 230.798 80.6543C228.434 77.757 226.103 74.838 223.797 71.8987C221.912 72.8144 219.773 74.0786 217.706 74.4223C216.447 72.544 215.224 70.3485 213.705 68.6829C211.58 65.3795 208.733 61.2649 206.126 58.3411L199.396 64.8748C195.388 58.8615 191.068 53.3673 186.529 47.7542C184.645 49.1686 176.416 54.8754 175.469 56.5458L175.588 56.9099C177.171 57.0974 178.956 54.7204 180.528 54.7877C180.439 55.308 180.377 55.5364 180.055 55.9534L179.153 56.2393C178.452 58.0599 178.763 59.7772 179.528 61.5196C182.683 68.6938 190.553 72.0862 196.741 76.0662C198.224 77.0179 199.843 77.9228 200.993 79.2759C202.737 81.32 203.773 84.5045 204.955 86.9079C205.886 88.8126 207.578 90.7678 208.093 92.8131L207.896 92.8287C206.771 91.2725 205.096 87.6626 203.294 87.1579L202.665 86.1064C202.607 86.4501 202.591 86.7253 202.627 87.0749L202.41 87.23C202.129 86.3828 201.847 85.5344 201.551 84.686L201.374 84.6295C201.399 85.8312 201.493 86.9548 201.707 88.136C201.41 87.433 200.816 85.5139 200.213 85.1546C200.155 85.711 200.338 86.9079 200.057 87.2768C199.546 86.8502 199.662 86.4392 199.499 85.8204L199.343 86.0126C199.126 86.2734 198.885 86.4921 198.631 86.7157C198.053 85.5704 197.631 84.3796 197.199 83.1779C197.356 84.4312 197.574 85.7219 197.47 86.9909C196.793 86.0547 196.554 84.6078 196.163 83.5155L196.403 88.2454C195.804 86.1064 195.523 83.542 194.243 81.7058C194.587 83.4218 195.06 85.2015 195.112 86.9596L194.971 87.0689C194.868 86.3143 194.706 85.5764 194.368 84.8843L194.014 84.7016C193.623 85.264 193.525 85.7843 193.389 86.4393L193.317 86.1593C193.035 85.0873 192 82.5217 190.995 82.0122C190.943 81.9858 190.886 81.9762 190.834 81.9545C190.854 83.578 191.375 85.3313 191.698 86.9284C190.214 84.2546 189.611 79.7854 188.126 77.7101C187.581 76.9446 186.898 76.2633 186.347 75.499C186.477 76.6899 186.68 77.9336 186.612 79.1305C186.414 78.162 186.305 77.382 185.587 76.643L185.415 76.7632C185.566 78.3446 186.383 80.1087 186.243 81.6589C185.181 80.2541 185.389 76.929 184.145 75.8631L184.437 76.2164L184.13 76.4087C184.462 77.757 184.712 79.1305 184.994 80.4933C183.817 78.4744 183.401 77.1898 183.078 74.8693C182.792 76.4556 183.339 78.1415 183.026 79.7386C182.381 78.6463 182.209 77.0336 181.87 75.785C181.866 75.8319 181.861 75.8787 181.861 75.9256C181.777 77.3556 182.615 78.8337 182.397 80.2072L181.944 80.2745C181.506 79.7386 181.381 79.2555 181.209 78.5946C181.028 77.2523 180.741 75.9052 180.507 74.5677C180.314 73.3143 180.033 72.0645 179.794 70.822C179.481 72.9033 179.721 75.2334 179.924 77.3244H179.883C178.644 75.5927 179.633 72.6738 178.935 70.7174L178.925 71.0142L178.805 71.0876C179.133 75.618 179.383 80.1183 179.149 84.6548C178.066 80.1808 178.95 75.6552 178.039 71.2486C177.431 75.6336 178.446 82.7777 177.644 86.3984C175.625 81.7418 177.472 65.4732 175.166 62.6745C174.469 62.6745 174.11 63.2525 173.522 63.184C172.575 63.0698 171.804 61.8633 170.93 61.9198L170.513 62.6696C170.248 62.5651 170.347 62.6276 170.144 62.4666C169.968 62.3211 169.79 62.1541 169.582 62.0448C169.129 61.8056 168.812 61.8104 168.338 61.9198C167.859 63.059 168.046 64.4902 168.062 65.7124C167.921 65.3591 168.036 65.4948 167.702 65.3014C167.037 66.5031 166.552 67.6952 166.121 69.0014C165.793 65.6763 166.141 62.1541 165.965 58.7881C165.059 57.4302 163.82 56.9988 162.712 55.9161C161.196 54.4488 160.057 52.3158 158.87 50.5733C161.665 51.7185 163.831 53.6485 166.137 55.5424C165.282 52.5405 163.513 50.8437 162.02 48.2276C161.259 46.8901 160.734 45.4229 160.057 44.0493C158.189 40.2832 156.543 37.1564 155.425 33.0562C157.584 35.9799 160.245 38.6597 162.274 41.6411C163.716 43.7585 164.012 46.0634 165.876 48.0245L166.115 47.8479L165.766 46.8745L165.959 46.6149C168.526 47.5979 169.91 51.6032 171.565 53.6329C173.132 55.558 175.349 57.7162 177.296 59.2412C177.088 58.0707 172.471 53.9549 171.466 52.6703C169.722 50.4435 169.384 47.5307 167.827 45.2102C166.782 43.654 165.215 42.3537 163.951 40.9645C161.113 37.8377 158.36 34.6953 155.398 31.6826C154.472 32.8278 153.426 33.8733 152.505 35.0281C150.261 37.8485 148.164 40.7506 145.831 43.5085L143.203 44.0085C140.924 46.0417 139.789 49.4497 137.91 51.8844C136.161 54.1532 134.121 56.2081 132.216 58.3507C129.848 61.0101 127.578 63.762 125.085 66.3108C122.795 64.1105 120.208 59.7039 117.548 58.2678C117.163 58.0599 116.845 57.9193 116.423 58.0707C114.492 58.7834 108.247 68.4498 107.138 70.7391C106.727 70.3894 106.28 70.1502 105.811 69.8907C104.593 69.011 103.391 68.0593 102.105 67.2842C100.668 68.3765 99.0553 69.4328 97.8164 70.7391C95.8804 72.7783 93.7246 76.7584 91.7322 79.2711C89.5559 77.1585 84.7671 71.7004 82.2435 70.7487C81.2858 70.8316 80.5624 71.7269 79.9735 72.4142C79.2453 73.2831 78.594 74.2192 77.9439 75.1445L74.8315 78.6619C74.1237 79.2711 73.6033 79.8948 73.0517 80.6387C70.0583 84.9419 67.7787 83.9169 64.8478 86.9343C63.9681 87.8392 63.5788 89.2284 62.8025 90.2474C60.9086 92.735 55.1722 99.4669 52.8612 101.106C51.305 102.208 49.3635 102.969 47.5939 103.66C57.1136 103.961 66.6335 104.014 76.1533 103.822C85.6732 103.628 95.1822 103.192 104.686 102.505C105.863 102.417 110.663 102.27 111.333 101.734C97.3525 102.359 83.6591 101.766 69.6942 101.194C72.3536 100.018 101.268 100.362 105.566 100.45C108.7 100.517 112.291 101.059 115.362 100.679C121.879 99.8827 132.132 93.0318 137.722 93.0834C143.277 93.1351 148.767 95.9603 154.222 96.9589C161.738 98.3277 169.977 98.4731 177.628 98.7435C173.563 96.8135 169.155 95.565 164.746 94.7274C162.649 94.3272 160.338 94.1337 158.303 93.4944C154.686 92.36 151.208 89.4411 147.269 89.1923L146.925 89.3318V89.5817L146.363 89.6502L146.295 90.2006C145.213 90.2895 144.999 88.7705 143.692 89.4675L143.744 90.2631L143.583 90.352C142.297 89.8365 141.444 88.0988 140.741 86.9596L141.252 88.1721C140.705 87.4547 140.314 86.8971 140.038 86.0235L139.502 84.3844L140.127 89.2752C139.596 87.9486 139.039 85.8516 138.149 84.7797L137.832 85.3265L137.702 85.0765C137.499 84.6812 137.254 84.3062 137.01 83.9325L136.832 84.0887C137.088 85.3421 137.566 86.7517 137.504 88.0267L136.994 87.1783L136.598 87.3706C135.755 86.6327 135.38 84.8326 134.963 83.7703C134.922 84.9672 135.401 86.1905 135.786 87.3081C134.001 84.3795 130.316 81.4246 127.359 79.6821C127.323 79.6605 127.281 79.6401 127.245 79.6136C127.843 82.2465 129.171 84.5874 129.701 87.236C126.907 84.1608 125.288 80.8213 123.367 77.1946C122.795 76.1131 121.926 74.9678 121.701 73.7613C122.076 72.8252 123.003 73.2518 122.581 72.1955C120.718 67.5498 118.709 66.6701 118.47 61.0101C120.703 62.4509 122.404 64.7966 124.128 66.7903C128.051 71.3423 131.909 76.5553 136.437 80.5137L136.53 80.4043C135.104 78.4023 133.501 76.4459 131.742 74.7179C133.516 75.5146 135.204 76.232 136.718 77.4914C139.274 79.6196 141.782 84.9828 144.311 86.2061C147.809 87.9017 151.995 88.3127 155.648 89.6959C157.376 90.3472 158.901 91.5645 160.665 92.1005C162.477 92.652 164.476 92.9116 166.34 93.2961C169.171 93.879 172.033 94.6228 174.766 95.5602C177.378 96.4542 179.778 98.4154 182.491 98.8997C187.378 99.7685 196.981 99.4513 202.243 99.4777L230.313 99.8466C226.503 100.809 220.351 100.508 216.259 100.617C201.707 101.153 187.159 101.106 172.611 100.47C166.423 100.262 159.979 100.425 153.878 99.3059C147.242 98.0885 142.761 94.868 136.687 93.2289C132.559 94.4462 125.709 98.5872 121.389 100.486C118.448 101.777 115.289 102.058 112.281 103.088C107.768 104.638 103.494 106.833 98.8991 108.166C106.54 108.597 114.181 108.186 121.822 108.316C128.915 108.436 140.205 109.716 146.925 108.389C141.533 107.358 135.859 106.896 130.384 106.438C130.435 106.422 130.493 106.407 130.545 106.397C131.549 106.157 133.715 106.413 134.48 105.902C132.924 105.56 131.18 105.549 129.587 105.435C124.253 105.049 119.573 105.06 114.289 105.975C129.259 101.037 152.025 102.76 167.952 102.739C177.046 102.723 186.128 101.85 195.232 101.938C201.379 102 207.536 102.349 213.678 102.511C229.631 102.984 245.585 103.13 261.543 102.942L254.625 94.5291L254.615 94.5351ZM195.607 73.9019C195.086 73.9488 194.634 73.6159 194.185 73.3816C193.124 71.8158 194.17 69.7861 194.415 68.0544C194.565 66.9513 194.675 65.5309 193.978 64.62L193.442 64.7197C192.556 65.8121 191.334 65.9995 190.345 66.9044C190.162 67.0703 190.308 66.9921 189.948 67.0342C189.475 65.484 189.939 63.4183 189.792 61.7696C189.454 57.9818 188.559 54.408 187.372 50.8125C187.508 50.9014 187.581 50.9327 187.706 51.0624C189.855 53.2063 199.885 65.6919 199.885 67.6062C199.885 70.2127 197.257 72.1739 195.612 73.9116L195.607 73.9019ZM99.0649 94.5195L98.9147 94.6132L97.9413 93.5774C97.4835 93.0474 97.0257 92.5739 96.4837 92.1257C96.6195 92.652 96.879 93.1351 97.1086 93.6194C96.843 93.6447 92.8245 90.108 92.023 89.5925C93.9277 91.5429 95.0416 93.4211 96.0991 95.9135C94.9431 94.332 93.6369 93.0318 92.3775 91.5537C91.6072 90.6488 91.2166 89.6286 90.2997 88.7706C90.5028 89.8208 91.32 90.7738 91.3416 91.8445C90.6074 90.966 90.1495 89.9098 89.7121 88.8583C89.1137 87.4283 87.537 86.9188 86.8965 85.5452C86.2716 84.2029 87.3075 82.8029 86.9686 81.451C86.3498 78.9683 84.0076 76.4663 82.842 74.0942C83.414 74.3802 83.992 74.6662 84.5797 74.921C90.2745 77.4241 95.3228 86.4705 99.2163 91.4492C100.835 93.5257 102.672 95.3979 104.505 97.2762C101.361 95.3931 98.6491 92.6256 96.0775 90.0504C97.0353 91.5693 98.1805 92.9477 99.0709 94.5195H99.0649ZM102.688 73.1629C102.49 72.4707 103.032 72.0705 102.958 71.2798L102.672 71.2113L101.485 72.9706C101.407 72.6377 101.47 72.8096 101.268 72.4707L100.398 72.8144C100.413 71.9816 102.797 69.8955 103.458 69.2189C104.072 69.6611 104.646 70.1767 105.222 70.6609L106.285 71.7268C106.03 72.0489 105.749 72.4299 105.389 72.6426C104.744 73.0271 103.407 73.3552 102.677 73.1581L102.688 73.1629ZM105.504 80.587C105.494 80.5293 105.478 80.4776 105.472 80.4199C105.426 79.3901 109.877 68.1013 110.647 66.5451C111.146 65.5417 111.838 64.6777 112.536 63.8089C112.546 63.887 112.567 63.9699 112.572 64.048C112.759 65.6138 107.081 78.5838 105.499 80.5822L105.504 80.587ZM123.539 86.1532L123.44 86.414C120.692 84.3796 117.866 82.684 116.028 79.7074L116.017 79.8684C115.383 79.2651 115.461 78.9431 115.367 78.0995C116.752 78.9899 122.347 84.7485 123.545 86.1593L123.539 86.1532ZM147.289 47.6544C147.32 46.9262 147.331 46.2292 147.269 45.5058L146.997 45.4121C146.425 46.1463 145.831 46.8637 145.228 47.5715C142.938 50.8497 142.917 54.9067 141.08 58.4132C141.491 55.4799 142.21 50.6875 143.791 48.206C145.91 47.634 148.023 41.0787 152.103 40.2988C151.567 41.7601 150.245 42.9834 149.111 44.0025L149.142 43.9243C148.216 45.0071 147.789 46.3386 147.289 47.6544ZM152.218 60.926L151.953 60.8491L151.609 60.0367C151.489 58.8819 151.151 57.7319 150.881 56.6083C150.797 57.7583 150.672 58.8771 150.459 60.0103C150.386 58.3567 150.194 56.738 149.986 55.1001C150.928 55.7502 151.723 56.9159 152.473 57.7943C152.458 58.8398 152.5 59.9118 152.218 60.926ZM158.682 72.0129C157.99 69.1672 156.704 68.3345 155.987 65.3326L156.034 65.8638C155.971 66.2699 156.007 66.7746 155.695 67.0498C154.967 65.4059 154.987 60.3756 154.472 59.7087C154.087 61.3214 154.275 63.1996 154.284 64.8591C153.389 62.5338 153.077 60.64 152.958 58.1801C158.193 59.6678 154.68 61.0041 157.251 63.6791C157.434 63.2525 157.403 62.8823 157.407 62.4245L157.657 62.7994C157.537 67.0811 158.979 71.4517 160.385 75.4052C159.671 74.3694 159.198 73.1581 158.688 72.0129H158.682ZM195.039 87.683C195.039 87.683 195.039 87.6362 195.039 87.6157C195.023 87.4799 195.007 87.3501 194.992 87.2143L195.148 87.1939L195.045 87.683H195.039ZM151.77 100.044C147.892 100.008 142.636 100.45 139.118 98.5716L140.122 98.2652C142.714 98.3998 145.264 98.9886 147.83 99.3263C149.298 99.5246 150.819 99.5294 152.255 99.8887L151.765 100.05L151.77 100.044ZM225.665 91.3506C225.723 91.7364 225.779 92.1161 225.884 92.4958L225.962 92.7866C224 91.2725 223.307 88.672 221.647 86.9236C221.537 87.3393 221.569 87.6253 221.636 88.0363L221.662 88.1877L221.542 88.1301C220.939 86.8298 220.028 85.4983 219.065 84.4312L218.82 84.4529L219.101 85.6173C218.659 85.5296 217.041 81.8824 216.297 81.2215C215.994 81.6216 216.041 81.8668 216.005 82.3559C215.77 81.9449 215.609 81.5808 215.234 81.2731C215.042 82.1215 215.344 83.0372 215.516 83.8748L215.417 84.0106C215.464 84.1344 215.51 84.2594 215.556 84.3844L215.245 84.2498L215.417 84.0106C214.953 82.8029 214.35 81.6481 213.855 80.4464C212.658 77.5275 211.524 74.5833 210.258 71.6908C208.644 67.9968 206.938 64.9901 206.505 60.9163C208.463 63.0854 209.54 65.7231 211.247 68.028C211.935 68.9545 212.933 69.7296 213.673 70.6766C214.61 71.8831 215.525 73.1268 216.499 74.3021C217.166 75.1132 217.869 75.9412 218.362 76.8725C219.138 78.3338 220.236 82.4028 221.511 83.1983C222.173 83.6093 222.901 84.0358 223.422 84.6295C225.868 87.4018 228.611 93.063 231.146 96.4854C230.432 95.7416 226.259 91.5741 225.66 91.3566L225.665 91.3506ZM248.78 90.4974C248.764 90.924 248.801 91.3458 248.838 91.7676C248.092 91.4083 247.141 89.6238 246.625 88.8895C246.953 89.7848 247.275 90.6801 247.588 91.5801C246.942 91.2052 246.558 90.3364 246.038 89.7956C246.022 89.78 245.991 89.7692 245.975 89.7487C244.897 88.5002 243.56 84.8422 243.856 83.2139C246.058 85.7375 248.02 88.4377 250.269 90.9192C251.211 92.0007 251.898 93.2289 252.622 94.457C251.383 93.0883 250.092 91.788 248.78 90.4878V90.4974Z" fill="#8AD360"/>
<path d="M215.55 84.3798L215.238 84.244L215.41 84.0049C215.457 84.1299 215.504 84.2549 215.55 84.3798Z" fill="#8AD360"/>
<path d="M97.8575 130.24V116.162L107.435 126.187V117.051H109.454V131.051L99.8776 121.027V130.24H97.8575Z" fill="#8AD360"/>
<path d="M121.851 127.056H116.216L114.767 130.24H112.592L119.161 116.281L125.412 130.24H123.236L121.851 127.056ZM121.04 125.157L119.083 120.688L117.042 125.157H121.04Z" fill="#8AD360"/>
<path d="M131.429 118.949V130.239H129.409V118.949H126.381V117.051H134.453V118.949H131.424H131.429Z" fill="#8AD360"/>
<path d="M139.737 117.051V125C139.737 125.713 139.757 126.581 140.152 127.274C140.548 127.945 141.438 128.636 142.604 128.636C143.77 128.636 144.66 127.945 145.055 127.274C145.451 126.581 145.472 125.713 145.472 125V117.051H147.491V125.536C147.491 126.581 147.273 127.852 146.263 128.96C145.571 129.708 144.405 130.499 142.604 130.499C140.804 130.499 139.637 129.708 138.945 128.96C137.935 127.852 137.717 126.587 137.717 125.536V117.051H139.737Z" fill="#8AD360"/>
<path d="M154.159 117.051V125C154.159 125.713 154.18 126.581 154.575 127.274C154.971 127.945 155.861 128.636 157.027 128.636C158.192 128.636 159.083 127.945 159.478 127.274C159.873 126.581 159.895 125.713 159.895 125V117.051H161.914V125.536C161.914 126.581 161.695 127.852 160.686 128.96C159.994 129.708 158.828 130.499 157.027 130.499C155.227 130.499 154.06 129.708 153.367 128.96C152.358 127.852 152.139 126.587 152.139 125.536V117.051H154.159Z" fill="#8AD360"/>
<path d="M168.921 117.051C170.524 117.051 171.549 117.249 172.402 117.821C173.849 118.788 173.964 120.354 173.964 120.926C173.964 122.826 172.799 124.209 171.033 124.605L175.15 130.239H172.721L168.941 124.839H168.587V130.239H166.568V117.051H168.921ZM168.582 123.101H169.218C169.769 123.101 172.027 123.044 172.027 120.948C172.027 119.09 170.269 118.909 169.28 118.909H168.587V123.101H168.582Z" fill="#8AD360"/>
<path d="M180.631 117.051V128.341H184.509V130.239H178.611V117.051H180.631Z" fill="#8AD360"/>
<path d="M189.906 117.051V130.239H187.886V117.051H189.906Z" fill="#8AD360"/>
<path d="M198.551 117.051V125.594C198.551 126.639 198.511 127.689 198.058 128.6C197.641 129.433 196.751 130.499 194.95 130.499C193.784 130.499 193.014 130.083 192.619 129.828L193.608 128.127C193.862 128.346 194.278 128.6 194.992 128.6C195.33 128.6 195.981 128.543 196.319 127.711C196.439 127.414 196.537 126.941 196.537 125.594V117.051H198.557H198.551Z" fill="#8AD360"/>
<path d="M205.219 122.311L210.325 117.051H212.975L207.021 123.023L213.016 130.239H210.325L205.615 124.386L205.219 124.781V130.239H203.199V117.051H205.219V122.311Z" fill="#8AD360"/>
<path d="M7.90634 144.683V172.24H18.5348V178.909H0V144.678H7.90634V144.683Z" fill="#8AD360"/>
<path d="M42.3573 151.357H30.9064V157.981H41.79V164.65H30.9064V172.246H42.3573V178.915H23.0001V144.683H42.3573V151.352V151.357Z" fill="#8AD360"/>
<path d="M56.838 144.683V178.915H48.9317V144.683H56.838Z" fill="#8AD360"/>
<path d="M75.3221 144.683C79.8392 144.683 84.6172 145.348 88.8232 149.406C91.8526 152.33 93.7525 156.337 93.7525 161.673C93.7525 167.011 91.9043 170.96 89.0779 173.785C84.3516 178.556 78.4501 178.92 75.5768 178.92H64.4851V144.687H75.3221V144.683ZM72.3911 172.246H74.4941C76.1392 172.246 79.7299 172.09 82.3015 169.935C84.1485 168.396 85.6374 165.472 85.6374 161.673C85.6374 157.876 84.1485 155.618 82.8111 154.281C80.2454 151.716 76.9095 151.357 74.4941 151.357H72.3911V172.246Z" fill="#8AD360"/>
<path d="M119.009 151.357H107.56V157.981H118.442V164.65H107.56V172.246H119.009V178.915H99.6524V144.683H119.009V151.352V151.357Z" fill="#8AD360"/>
<path d="M137.443 144.683C141.804 144.683 144.527 146.119 146.171 147.658C147.608 149.042 149.148 151.508 149.148 155.306C149.148 157.46 148.685 160.129 146.478 162.288C145.297 163.417 143.6 164.442 141.705 164.905L152.23 178.915H142.574L133.33 165.419V178.915H125.424V144.683H137.437H137.443ZM133.335 160.233H135.132C136.568 160.233 138.519 160.076 139.857 158.745C140.425 158.178 141.143 157.101 141.143 155.41C141.143 153.459 140.216 152.435 139.55 151.919C138.265 150.941 136.213 150.842 135.188 150.842H133.341V160.233H133.335Z" fill="#8AD360"/>
<path d="M174.257 153.047C171.69 150.738 169.484 150.582 168.505 150.582C167.427 150.582 166.09 150.738 165.168 151.763C164.654 152.278 164.295 153.047 164.295 153.916C164.295 154.738 164.549 155.352 165.065 155.816C165.887 156.585 167.068 156.893 169.379 157.767L171.946 158.745C173.433 159.307 175.282 160.076 176.619 161.362C178.624 163.261 179.133 165.727 179.133 167.724C179.133 171.268 177.9 174.348 176.104 176.195C173.075 179.378 168.662 179.684 166.402 179.684C163.94 179.684 161.781 179.326 159.625 178.249C157.882 177.375 155.878 175.784 154.592 174.504L158.699 168.858C159.573 169.733 160.957 170.913 161.884 171.476C163.221 172.297 164.607 172.708 166.199 172.708C167.224 172.708 168.666 172.505 169.796 171.527C170.462 170.96 171.029 170.039 171.029 168.755C171.029 167.625 170.566 166.908 169.848 166.289C168.921 165.519 166.818 164.748 165.845 164.389L163.02 163.417C161.426 162.855 159.579 162.131 158.246 160.696C156.45 158.796 156.19 156.383 156.19 154.744C156.19 151.716 157.117 149.152 159.167 147.044C161.582 144.578 164.456 143.912 167.641 143.912C170.004 143.912 173.804 144.323 177.806 147.3L174.261 153.047H174.257Z" fill="#8AD360"/>
<path d="M209.577 177.839C206.547 179.378 204.08 179.684 202.029 179.684C195.717 179.684 191.453 177.531 188.575 174.706C185.494 171.73 183.234 167.214 183.234 161.72C183.234 156.227 185.494 151.814 188.575 148.839C191.604 145.915 196.018 143.912 201.359 143.912C203.617 143.912 206.235 144.376 209.572 145.811V154.947C207.828 153.1 205.21 151.305 201.562 151.305C198.688 151.305 196.377 152.231 194.576 153.974C192.676 155.821 191.344 158.593 191.344 161.876C191.344 165.42 192.781 167.933 194.321 169.421C195.039 170.138 197.507 172.293 201.718 172.293C203.773 172.293 206.543 171.73 209.572 168.749V177.833L209.577 177.839Z" fill="#8AD360"/>
<path d="M223.796 157.72H237.455V144.683H245.361V178.915H237.455V164.389H223.796V178.915H215.89V144.683H223.796V157.72Z" fill="#8AD360"/>
<path d="M272.982 172.448H260.043L257.425 178.915H249.211L263.026 144.683H270.266L283.767 178.915H275.554L272.988 172.448H272.982ZM270.827 166.392L266.617 154.895L262.354 166.392H270.827Z" fill="#8AD360"/>
<path d="M299.679 144.683C302.657 144.683 305.941 145.094 308.663 147.508C311.588 150.072 312 153.459 312 155.821C312 160.134 310.355 162.542 309.074 163.88C306.352 166.653 302.761 166.908 300.346 166.908H295.521V178.915H287.614V144.683H299.679ZM295.521 160.44H298.347C299.424 160.44 301.324 160.389 302.61 159.156C303.329 158.438 303.896 157.257 303.896 155.769C303.896 154.281 303.38 153.152 302.61 152.435C301.429 151.305 299.737 151.149 298.196 151.149H295.526V160.44H295.521Z" fill="#8AD360"/>
<path d="M52.9029 204.636L54.8808 192.321H57.2438L60.309 199.689L63.3757 192.321H65.7383L67.7163 204.636H64.8742L63.8961 197.29L60.8149 204.636H59.8151L56.7285 197.29L55.7501 204.636H52.9082H52.9029Z" fill="#8AD360"/>
<path d="M78.1845 194.725H74.0663V197.108H77.9814V199.506H74.0663V202.238H78.1845V204.636H71.2195V192.321H78.1845V194.72V194.725Z" fill="#8AD360"/>
<path d="M86.1934 194.726V204.636H83.3514V194.726H80.6752V192.327H88.8732V194.726H86.1934Z" fill="#8AD360"/>
<path d="M104.405 194.725H100.288V197.108H104.202V199.506H100.288V202.238H104.405V204.636H97.4415V192.321H104.405V194.72V194.725Z" fill="#8AD360"/>
<path d="M108.096 204.636V192.321H110.573L117.257 200.261V192.321H120.099V204.636H117.625L110.943 196.661V204.636H108.101H108.096Z" fill="#8AD360"/>
<path d="M133.6 202.238H138.884V204.636H128.926L134.834 194.726H129.884V192.327H139.487L133.595 202.238H133.6Z" fill="#8AD360"/>
<path d="M153.061 193.84C154.228 194.97 154.983 196.593 154.983 198.492C154.983 200.136 154.389 201.816 153.061 203.106C151.916 204.214 150.366 204.917 148.299 204.917C145.993 204.917 144.421 203.996 143.494 203.106C142.313 201.998 141.574 200.339 141.574 198.528C141.574 196.718 142.371 194.965 143.479 193.856C144.311 193.024 145.842 192.046 148.299 192.046C150.219 192.046 151.828 192.634 153.061 193.835V193.84ZM145.582 195.718C145.046 196.234 144.494 197.139 144.494 198.507C144.494 199.631 144.864 200.536 145.619 201.275C146.414 202.034 147.3 202.289 148.258 202.289C149.511 202.289 150.402 201.827 150.989 201.239C151.469 200.775 152.062 199.912 152.062 198.487C152.062 197.212 151.547 196.27 150.989 195.718C150.381 195.131 149.402 194.668 148.274 194.668C147.144 194.668 146.243 195.059 145.577 195.718H145.582Z" fill="#8AD360"/>
<path d="M158.49 204.636V192.321H160.963L167.646 200.261V192.321H170.488V204.636H168.016L161.332 196.661V204.636H158.49Z" fill="#8AD360"/>
<path d="M178.472 192.327C180.095 192.327 181.813 192.566 183.328 194.023C184.416 195.074 185.103 196.515 185.103 198.434C185.103 200.355 184.436 201.775 183.422 202.789C181.72 204.507 179.596 204.636 178.566 204.636H174.578V192.321H178.477L178.472 192.327ZM177.42 202.238H178.18C178.769 202.238 180.064 202.18 180.986 201.405C181.652 200.853 182.188 199.798 182.188 198.434C182.188 197.072 181.652 196.254 181.173 195.776C180.252 194.856 179.05 194.725 178.18 194.725H177.42V202.238Z" fill="#8AD360"/>
<path d="M195.576 194.725H191.459V197.108H195.373V199.506H191.459V202.238H195.576V204.636H188.612V192.321H195.576V194.72V194.725Z" fill="#8AD360"/>
<path d="M203.585 192.327C205.157 192.327 206.135 192.841 206.724 193.399C207.239 193.898 207.796 194.782 207.796 196.151C207.796 196.926 207.629 197.883 206.838 198.664C206.411 199.069 205.802 199.439 205.121 199.605L208.905 204.646H205.433L202.107 199.792V204.646H199.265V192.332H203.585V192.327ZM202.112 197.92H202.757C203.273 197.92 203.976 197.862 204.454 197.384C204.657 197.181 204.918 196.79 204.918 196.182C204.918 195.479 204.585 195.11 204.345 194.928C203.882 194.579 203.143 194.543 202.773 194.543H202.107V197.92H202.112Z" fill="#8AD360"/>
<path d="M224.509 194.725H220.392V197.108H224.306V199.506H220.392V202.238H224.509V204.636H217.545V192.321H224.509V194.72V194.725Z" fill="#8AD360"/>
<path d="M234.135 197.92H240.245V198.05C240.245 199.542 239.708 201.816 238.345 203.236C236.982 204.657 235.41 204.917 233.947 204.917C232.485 204.917 230.882 204.677 229.44 203.2C228.721 202.461 227.628 200.969 227.628 198.512C227.628 196.499 228.368 194.896 229.402 193.84C230.918 192.269 232.78 192.051 234.244 192.051C235.258 192.051 236.549 192.218 237.7 192.971C238.533 193.523 239.25 194.392 239.693 195.167L237.127 196.551C236.888 196.073 236.518 195.573 236.039 195.224C235.488 194.818 234.858 194.632 234.155 194.632C233.03 194.632 232.198 195.001 231.61 195.631C230.929 196.348 230.558 197.404 230.558 198.548C230.558 199.953 231.074 200.853 231.594 201.374C232.313 202.113 233.146 202.336 234.088 202.336C235.305 202.336 235.951 201.91 236.232 201.67C236.325 201.597 236.877 201.119 237.116 200.214H234.144V197.925L234.135 197.92Z" fill="#8AD360"/>
<path d="M254.666 193.84C255.831 194.97 256.586 196.593 256.586 198.492C256.586 200.136 255.998 201.816 254.666 203.106C253.52 204.214 251.969 204.917 249.903 204.917C247.597 204.917 246.025 203.996 245.099 203.106C243.918 201.998 243.179 200.339 243.179 198.528C243.179 196.718 243.975 194.965 245.078 193.856C245.911 193.024 247.441 192.046 249.899 192.046C251.819 192.046 253.427 192.634 254.661 193.835L254.666 193.84ZM247.186 195.718C246.65 196.234 246.099 197.139 246.099 198.507C246.099 199.631 246.468 200.536 247.222 201.275C248.019 202.034 248.904 202.289 249.861 202.289C251.116 202.289 252.006 201.827 252.594 201.239C253.073 200.775 253.666 199.912 253.666 198.487C253.666 197.212 253.152 196.27 252.594 195.718C251.985 195.131 251.006 194.668 249.877 194.668C248.747 194.668 247.847 195.059 247.181 195.718H247.186Z" fill="#8AD360"/>
<path d="M290.586 134.522H286.016C286.016 62.8669 227.69 4.56765 156.003 4.56765C84.3142 4.56765 25.9881 62.8669 25.9881 134.522H21.4182C21.4182 98.5874 35.4195 64.8076 60.8354 39.3989C86.2561 13.995 120.051 0 156.003 0C191.953 0 225.748 13.995 251.169 39.3989C276.59 64.8076 290.586 98.5874 290.586 134.522Z" fill="#8AD360"/>
</svg>
