<svg width="19" height="19" viewBox="0 0 19 19" fill="none" xmlns="http://www.w3.org/2000/svg">
<path d="M17.25 0H1.5C1.10218 0 0.720644 0.158035 0.43934 0.43934C0.158035 0.720644 0 1.10218 0 1.5V17.25C0 17.6478 0.158035 18.0294 0.43934 18.3107C0.720644 18.592 1.10218 18.75 1.5 18.75H17.25C17.6478 18.75 18.0294 18.592 18.3107 18.3107C18.592 18.0294 18.75 17.6478 18.75 17.25V1.5C18.75 1.10218 18.592 0.720644 18.3107 0.43934C18.0294 0.158035 17.6478 0 17.25 0ZM6.375 13.875C6.375 14.0739 6.29598 14.2647 6.15533 14.4053C6.01468 14.546 5.82391 14.625 5.625 14.625C5.42609 14.625 5.23532 14.546 5.09467 14.4053C4.95402 14.2647 4.875 14.0739 4.875 13.875V7.875C4.875 7.67609 4.95402 7.48532 5.09467 7.34467C5.23532 7.20402 5.42609 7.125 5.625 7.125C5.82391 7.125 6.01468 7.20402 6.15533 7.34467C6.29598 7.48532 6.375 7.67609 6.375 7.875V13.875ZM5.625 6C5.4025 6 5.18499 5.93402 4.99998 5.8104C4.81498 5.68679 4.67078 5.51109 4.58564 5.30552C4.50049 5.09995 4.47821 4.87375 4.52162 4.65552C4.56502 4.43729 4.67217 4.23684 4.8295 4.0795C4.98684 3.92217 5.18729 3.81502 5.40552 3.77162C5.62375 3.72821 5.84995 3.75049 6.05552 3.83564C6.26109 3.92078 6.43679 4.06498 6.5604 4.24998C6.68402 4.43499 6.75 4.6525 6.75 4.875C6.75 5.17337 6.63147 5.45952 6.4205 5.6705C6.20952 5.88147 5.92337 6 5.625 6ZM14.625 13.875C14.625 14.0739 14.546 14.2647 14.4053 14.4053C14.2647 14.546 14.0739 14.625 13.875 14.625C13.6761 14.625 13.4853 14.546 13.3447 14.4053C13.204 14.2647 13.125 14.0739 13.125 13.875V10.5C13.125 10.0027 12.9275 9.52581 12.5758 9.17418C12.2242 8.82254 11.7473 8.625 11.25 8.625C10.7527 8.625 10.2758 8.82254 9.92418 9.17418C9.57254 9.52581 9.375 10.0027 9.375 10.5V13.875C9.375 14.0739 9.29598 14.2647 9.15533 14.4053C9.01468 14.546 8.82391 14.625 8.625 14.625C8.42609 14.625 8.23532 14.546 8.09467 14.4053C7.95402 14.2647 7.875 14.0739 7.875 13.875V7.875C7.87448 7.69042 7.94204 7.51214 8.06476 7.37426C8.18747 7.23639 8.35671 7.1486 8.5401 7.12771C8.72349 7.10682 8.90815 7.15428 9.05873 7.26103C9.20931 7.36777 9.31524 7.52629 9.35625 7.70625C9.86374 7.36223 10.4553 7.16295 11.0675 7.12981C11.6797 7.09666 12.2894 7.23091 12.8311 7.51812C13.3727 7.80534 13.8259 8.23467 14.142 8.76003C14.458 9.28538 14.625 9.8869 14.625 10.5V13.875Z" fill="#8AD360"/>
</svg>
