<svg width="20" height="20" viewBox="0 0 20 20" fill="none" xmlns="http://www.w3.org/2000/svg">
<path d="M7.15 5.49023C6.59 5.49023 6.15 5.94023 6.15 6.49023C6.15 7.04023 6.6 7.49023 7.15 7.49023C7.7 7.49023 8.15 7.04023 8.15 6.49023C8.15 5.94023 7.7 5.49023 7.15 5.49023Z" fill="#8AD360"/>
<path d="M19.46 3.04C18.62 1.09 16.77 0 14.19 0H5.81C2.6 0 0 2.6 0 5.81V14.19C0 16.77 1.09 18.62 3.04 19.46C3.23 19.54 3.45 19.49 3.59 19.35L19.35 3.59C19.5 3.44 19.55 3.22 19.46 3.04ZM8.53 10.24C8.14 10.62 7.63 10.8 7.12 10.8C6.61 10.8 6.1 10.61 5.71 10.24C4.69 9.28 3.57 7.75 4 5.93C4.38 4.28 5.84 3.54 7.12 3.54C8.4 3.54 9.86 4.28 10.24 5.94C10.66 7.75 9.54 9.28 8.53 10.24Z" fill="#8AD360"/>
<path d="M17.47 18.5295C17.69 18.7495 17.66 19.1095 17.39 19.2595C16.51 19.7495 15.44 19.9995 14.19 19.9995H5.81C5.52 19.9995 5.4 19.6595 5.6 19.4595L11.64 13.4195C11.84 13.2195 12.15 13.2195 12.35 13.4195L17.47 18.5295Z" fill="#8AD360"/>
<path d="M20 5.8099V14.1899C20 15.4399 19.75 16.5199 19.26 17.3899C19.11 17.6599 18.75 17.6799 18.53 17.4699L13.41 12.3499C13.21 12.1499 13.21 11.8399 13.41 11.6399L19.45 5.5999C19.66 5.3999 20 5.5199 20 5.8099Z" fill="#8AD360"/>
</svg>
