<svg width="19" height="18" viewBox="0 0 19 18" fill="none" xmlns="http://www.w3.org/2000/svg">
<path d="M16.5831 7.12288L17.0748 15.3646C17.0915 15.5896 16.9831 15.7396 16.9248 15.8062C16.8581 15.8812 16.7165 15.9979 16.4831 15.9979H14.2081L16.0081 7.12288H16.5831ZM17.4998 3.91455L17.4915 3.93122C17.5081 4.13122 17.4915 4.33955 17.4415 4.54788L11.2998 15.8229C11.0998 16.6646 10.3498 17.2479 9.48312 17.2479H16.4831C17.5581 17.2479 18.4081 16.3396 18.3248 15.2646L17.4998 3.91455Z" fill="white"/>
<path d="M8.70813 0.781378C8.79147 0.448045 8.58313 0.106378 8.2498 0.0230447C7.91647 -0.0519553 7.5748 0.148045 7.49147 0.481378L7.0748 2.20638H8.35813L8.70813 0.781378Z" fill="white"/>
<path d="M14.2081 0.756506C14.2831 0.41484 14.0665 0.0898396 13.7248 0.0148396C13.3915 -0.0601604 13.0581 0.156506 12.9831 0.498173L12.6081 2.22317H13.8915L14.2081 0.756506Z" fill="white"/>
<path d="M17.3498 3.35609C17.0748 2.68942 16.4248 2.21442 15.6248 2.21442H13.8915L13.4248 4.37275C13.3581 4.66442 13.0998 4.86442 12.8165 4.86442C12.7748 4.86442 12.7248 4.86442 12.6831 4.84775C12.3498 4.77275 12.1331 4.43942 12.1998 4.10609L12.6081 2.20609H8.35813L7.83313 4.37275C7.76646 4.65609 7.50813 4.84775 7.2248 4.84775C7.1748 4.84775 7.1248 4.83942 7.0748 4.83109C6.74146 4.74775 6.53313 4.41442 6.61646 4.07275L7.06646 2.19775H5.3748C4.55813 2.19775 3.83313 2.73109 3.59146 3.51442L0.0831287 14.8061C-0.283538 16.0144 0.608129 17.2478 1.86646 17.2478H12.8165C13.6831 17.2478 14.4331 16.6644 14.6331 15.8228L17.4415 4.54775C17.4915 4.33942 17.5081 4.13109 17.4915 3.93109C17.4748 3.73109 17.4331 3.53109 17.3498 3.35609ZM11.4165 12.8728H4.7498C4.40813 12.8728 4.1248 12.5894 4.1248 12.2478C4.1248 11.9061 4.40813 11.6228 4.7498 11.6228H11.4165C11.7581 11.6228 12.0415 11.9061 12.0415 12.2478C12.0415 12.5894 11.7581 12.8728 11.4165 12.8728ZM12.2498 9.53942H5.58313C5.24146 9.53942 4.95813 9.25609 4.95813 8.91442C4.95813 8.57275 5.24146 8.28942 5.58313 8.28942H12.2498C12.5915 8.28942 12.8748 8.57275 12.8748 8.91442C12.8748 9.25609 12.5915 9.53942 12.2498 9.53942Z" fill="white"/>
</svg>
