<svg width="20" height="20" viewBox="0 0 20 20" fill="none" xmlns="http://www.w3.org/2000/svg">
<path d="M17.4166 8.20833L17.9083 16.45C17.925 16.675 17.8166 16.825 17.7583 16.8917C17.6916 16.9667 17.55 17.0833 17.3167 17.0833H15.0416L16.8416 8.20833H17.4166ZM18.3333 5L18.325 5.01667C18.3416 5.21667 18.325 5.425 18.275 5.63333L12.1333 16.9083C11.9333 17.75 11.1833 18.3333 10.3167 18.3333H17.3167C18.3917 18.3333 19.2416 17.425 19.1583 16.35L18.3333 5Z" fill="#8AD360"/>
<path d="M9.54166 1.86683C9.62499 1.53349 9.41666 1.19183 9.08333 1.10849C8.74999 1.03349 8.40833 1.23349 8.32499 1.56683L7.90833 3.29183H9.19166L9.54166 1.86683Z" fill="#8AD360"/>
<path d="M15.0417 1.84171C15.1167 1.50004 14.9 1.17504 14.5583 1.10004C14.225 1.02504 13.8917 1.24171 13.8167 1.58338L13.4417 3.30838H14.725L15.0417 1.84171Z" fill="#8AD360"/>
<path d="M18.1834 4.44178C17.9084 3.77511 17.2584 3.30011 16.4584 3.30011H14.725L14.2584 5.45845C14.1917 5.75011 13.9334 5.95011 13.65 5.95011C13.6084 5.95011 13.5584 5.95011 13.5167 5.93345C13.1834 5.85845 12.9667 5.52511 13.0334 5.19178L13.4417 3.29178H9.19169L8.66669 5.45845C8.60002 5.74178 8.34169 5.93345 8.05835 5.93345C8.00835 5.93345 7.95835 5.92511 7.90835 5.91678C7.57502 5.83345 7.36669 5.50011 7.45002 5.15845L7.90002 3.28345H6.20835C5.39169 3.28345 4.66669 3.81678 4.42502 4.60011L0.916686 15.8918C0.550019 17.1001 1.44169 18.3334 2.70002 18.3334H13.65C14.5167 18.3334 15.2667 17.7501 15.4667 16.9084L18.275 5.63345C18.325 5.42511 18.3417 5.21678 18.325 5.01678C18.3084 4.81678 18.2667 4.61678 18.1834 4.44178ZM12.25 13.9584H5.58335C5.24169 13.9584 4.95835 13.6751 4.95835 13.3334C4.95835 12.9918 5.24169 12.7084 5.58335 12.7084H12.25C12.5917 12.7084 12.875 12.9918 12.875 13.3334C12.875 13.6751 12.5917 13.9584 12.25 13.9584ZM13.0834 10.6251H6.41669C6.07502 10.6251 5.79169 10.3418 5.79169 10.0001C5.79169 9.65845 6.07502 9.37511 6.41669 9.37511H13.0834C13.425 9.37511 13.7084 9.65845 13.7084 10.0001C13.7084 10.3418 13.425 10.6251 13.0834 10.6251Z" fill="#8AD360"/>
</svg>
