<svg width="48" height="48" viewBox="0 0 48 48" fill="none" xmlns="http://www.w3.org/2000/svg">
<g clip-path="url(#clip0_5744_2671)">
<path d="M47.9962 35.8192C47.9962 36.0818 47.9882 36.6522 47.9722 37.0922C47.9516 38.13 47.867 39.1655 47.7191 40.1929C47.546 41.0937 47.2537 41.9674 46.8499 42.791C45.9597 44.5455 44.5333 45.9704 42.7779 46.8588C41.9496 47.2636 41.0709 47.5559 40.1652 47.7279C39.1454 47.8731 38.1178 47.9561 37.088 47.9764C36.6475 47.9919 36.0772 47.9999 35.8174 47.9999L12.1831 47.9962C11.9205 47.9962 11.3506 47.9882 10.9101 47.9722C9.87233 47.9515 8.83681 47.8669 7.80941 47.719C6.90862 47.5459 6.0349 47.2536 5.21129 46.8498C3.45522 45.9604 2.02872 44.5339 1.13929 42.7778C0.735118 41.9494 0.443439 41.0708 0.272 40.1651C0.126836 39.1454 0.0438594 38.1177 0.0235294 37.0879C0.00952704 36.6645 0.00168307 36.241 0 35.8173L0.00376471 12.1825C0.00376471 11.9199 0.0117647 11.3496 0.0277647 10.9096C0.0484411 9.87179 0.132993 8.83626 0.280941 7.80887C0.454001 6.90807 0.746298 6.03435 1.15012 5.21075C2.03973 3.45505 3.46621 2.0289 5.22212 1.13969C6.05041 0.734768 6.92908 0.4423 7.83482 0.270047C8.85455 0.124835 9.88218 0.0418575 10.912 0.0215763C11.3525 0.00604691 11.9228 -0.00195312 12.1826 -0.00195312L35.8193 0.00369395C36.0824 0.00369395 36.6522 0.0116939 37.0922 0.0276939C38.13 0.0483774 39.1656 0.13293 40.1929 0.28087C41.0937 0.453931 41.9675 0.746227 42.7911 1.15005C44.5456 2.04017 45.9705 3.4666 46.8588 5.22205C47.2638 6.05032 47.5563 6.929 47.7285 7.83475C47.8736 8.85449 47.9566 9.88212 47.9769 10.9119C47.9925 11.3524 48.0005 11.9228 48.0005 12.1825L47.9967 35.8169L47.9962 35.8192Z" fill="url(#paint0_linear_5744_2671)"/>
<path d="M36.7153 11.3561C33.7636 8.40357 29.8395 6.62437 25.6736 6.34979C21.5077 6.07521 17.384 7.32396 14.0703 9.86352C10.7566 12.4031 8.47872 16.0604 7.66085 20.1544C6.84298 24.2484 7.54085 28.5002 9.6245 32.118L7.18262 41.0347L16.3073 38.6417C18.8312 40.0159 21.659 40.736 24.5327 40.7363H24.5398C27.9437 40.7362 31.2711 39.7269 34.1014 37.8361C36.9317 35.9452 39.1379 33.2576 40.4411 30.1131C41.7442 26.9685 42.0858 23.5082 41.4226 20.1696C40.7595 16.8309 39.1213 13.7639 36.7153 11.3561ZM24.5412 37.83H24.5356C21.9736 37.8304 19.4587 37.1419 17.2541 35.8366L16.7318 35.5264L11.3172 36.9462L12.7624 31.6686L12.4221 31.1274C10.7364 28.4408 9.99116 25.2702 10.3037 22.114C10.6162 18.9578 11.9687 15.9949 14.1486 13.6911C16.3286 11.3873 19.2123 9.87322 22.3464 9.38691C25.4806 8.9006 28.6875 9.46961 31.4631 11.0045C34.2386 12.5394 36.4254 14.9531 37.6797 17.8662C38.9339 20.7793 39.1846 24.0267 38.3922 27.0978C37.5998 30.1689 35.8093 32.8895 33.3021 34.8322C30.795 36.7748 27.7133 37.8291 24.5417 37.8295L24.5412 37.83ZM32.3859 27.1189C31.9558 26.9039 29.8414 25.8634 29.4471 25.7199C29.0527 25.5763 28.7661 25.5048 28.4796 25.9349C28.193 26.365 27.3685 27.334 27.1177 27.6206C26.8669 27.9072 26.616 27.9434 26.1859 27.7283C24.9179 27.2233 23.7476 26.5011 22.7276 25.5942C21.7873 24.7251 20.981 23.7214 20.3351 22.6159C20.0843 22.1853 20.3083 21.9528 20.5233 21.7382C20.7167 21.5457 20.9534 21.2361 21.1685 20.9853C21.3454 20.768 21.4903 20.5265 21.5986 20.2681C21.6557 20.1495 21.6824 20.0186 21.6761 19.8871C21.6699 19.7556 21.6309 19.6278 21.5629 19.5152C21.4556 19.3001 20.5953 17.1839 20.2367 16.3232C19.8876 15.4846 19.5309 15.598 19.2692 15.5853C18.9945 15.5736 18.7196 15.5685 18.4447 15.5702C18.2268 15.5759 18.0124 15.6267 17.8151 15.7192C17.6177 15.8118 17.4416 15.9442 17.2979 16.1081C16.8115 16.5686 16.4265 17.1253 16.1672 17.7429C15.9079 18.3605 15.7801 19.0253 15.792 19.6949C15.792 21.8126 17.3332 23.8554 17.5483 24.1424C17.7633 24.4295 20.5807 28.7721 24.8951 30.6366C25.6958 30.9815 26.5142 31.2839 27.3469 31.5424C28.2242 31.809 29.1517 31.8673 30.0556 31.7128C30.8819 31.5895 32.6 30.6728 32.9586 29.6686C33.2399 29.0262 33.3271 28.3156 33.2094 27.6243C33.1017 27.445 32.8151 27.3373 32.385 27.1222L32.3859 27.1189Z" fill="white"/>
</g>
<defs>
<linearGradient id="paint0_linear_5744_2671" x1="24.0002" y1="-0.00195312" x2="24.0002" y2="47.9999" gradientUnits="userSpaceOnUse">
<stop stop-color="#61FD7D"/>
<stop offset="1" stop-color="#2BB826"/>
</linearGradient>
<clipPath id="clip0_5744_2671">
<rect width="48" height="48" fill="white"/>
</clipPath>
</defs>
</svg>
